<svg xmlns="http://www.w3.org/2000/svg" viewBox="0 0 352.08 352.08"><defs><style>.cls-1,.cls-2,.cls-4,.cls-7{fill:none;}.cls-1,.cls-6,.cls-7{stroke:#1d1d1b;}.cls-1,.cls-2,.cls-4,.cls-6,.cls-7{stroke-miterlimit:10;}.cls-2,.cls-4{stroke:#fff;}.cls-2{stroke-width:0.25px;}.cls-3{fill:#fff;}.cls-5,.cls-6{fill:#1d1d1b;}.cls-6{font-size:48px;font-family:TimesNewRomanPSMT, Times New Roman;}.cls-7{stroke-width:7px;}</style></defs><g id="Laag_2" data-name="Laag 2"><g id="Laag_1-2" data-name="Laag 1"><g id="T5ovJL"><path d="M119.94,226.59a29.16,29.16,0,0,1,7.9-2.45,1.79,1.79,0,0,0,1.3-.8,36.94,36.94,0,0,1,2.74-3.68,5.46,5.46,0,0,0,1-1.92,5.84,5.84,0,0,1,1.28-2.37,3.44,3.44,0,0,0,.87-2.73c-.22-3.64,1-7,2.3-10.44.09-.23.15-.59.51-.56s.4.37.49.61a53.69,53.69,0,0,1,2.06,6.6v-1.79c.68.65.62,1.53,1.21,2.18.35-.34,0-.74.26-1,.42.09.48.42.67.65a1.66,1.66,0,0,0,2.87,0c.21-.28.33-.47.75-.39.87.17,1-.27,1-.88a10.79,10.79,0,0,1,.65-4.1c.4.33.26.7.29,1,.12,1,.2,2.07.34,3.1.06.44.29.88.89.85s.48-.56.5-.92a6.5,6.5,0,0,1,.32-2.41c.29.43,0,.89.48,1.39.27-1.65,1.53-2.79,1.78-4.29.11-.64.06-1-.82-.73-1.23.3-2.44-.14-3.67-.15a1.27,1.27,0,0,1-1.31-1.54,19.1,19.1,0,0,1,3.87-9.54,3.11,3.11,0,0,1,2.95-1.4c1.16.14,1.19,0,.84,1.15-.49,1.67-1.5,3.19-1.79,4.92-.06.34-.24.69,0,1.05.54,0,.52-.39.65-.65a18.61,18.61,0,0,1,3.86-5.46,2.55,2.55,0,0,1,2.73-.5c.35.13.79.44.94-.18.07-.31.18-.5.58-.38a.59.59,0,0,1,.48.59c0,1.29.66,2.78.2,3.82-.78,1.76.17,4.31-2.78,5.21a1.1,1.1,0,0,0-.5.37,3.85,3.85,0,0,1-3.26,1.79c-.43,0-.5.32-.63.59a24.46,24.46,0,0,0-2.14,7,2.93,2.93,0,0,1-2.93,2.87,29.25,29.25,0,0,0-3.81.89,5.32,5.32,0,0,0-4.21,4.05c-.1.41-.22.83-.28,1.24a5.28,5.28,0,0,1-1.82,3.38,7,7,0,0,0-1.56,2c-.18.35-.74.78-.15,1.1a2.26,2.26,0,0,0,2,.3,9.74,9.74,0,0,0,.93-.54c.9-.49,1.72-.31,2,.55.18.47.5.56,1,.67a9,9,0,0,1,5.93,4.46c.34.56.43,1.4,1.3,1.43a2.59,2.59,0,0,0,2-1.18,5.4,5.4,0,0,0,.95-3,.5.5,0,0,0-.11-.37c-1.69-1.59-2.32-3.93-4.81-5a4.16,4.16,0,0,0-2.85-.54c-.51.13-1.1.18-1.31-.42s.38-.76.86-.94c3.22-1.14,7.54-.53,9.65,2.63.27.4.41,1.21,1.16,1a2,2,0,0,0,1.49-1.68,7.88,7.88,0,0,0-1.43-5.88c-.6-.78-1.11-1.62-1.72-2.4a4.91,4.91,0,0,1-.39-6.11c.36,2.26-.21,4.58,1.78,6.43.38-.61,0-1.29.35-2,1,1.2.86,2.57,1.35,4,.59-.82,0-1.49.24-2.35a6.8,6.8,0,0,1,.48,2.1c0,.3.1.63.56.58s.4-.35.4-.61c0-.71,0-1.42,0-2.17.55.06.29.54.8.7.63-1.74,1.54-3.4,1-5.3a1.79,1.79,0,0,1,.23-1.95,1.66,1.66,0,0,0,.29-1.31,13.55,13.55,0,0,1,1.05-5.93,18.29,18.29,0,0,0,.59-2.56c.07-.31.07-.66.48-.89.42.27.25.64.18,1-.86,3.39-.21,6.78.08,10.17a24.16,24.16,0,0,1-.28,6.12,16.36,16.36,0,0,0-.29,2.51.94.94,0,0,0,.67,1c.56.13.57-.42.74-.7a17.94,17.94,0,0,0,1.91-7.47,64.71,64.71,0,0,0,.26-7.88,54.77,54.77,0,0,1,.5-10.08c.43-2.73,1.24-5.41,1.87-8.11.14-.57.24-1.15.34-1.73a1.93,1.93,0,0,0-1-1.93,1.2,1.2,0,0,0-1.13-.29c-.44.17-.3.56-.31.87a49.56,49.56,0,0,1-.88,8.32c-.06.27,0,.68-.42.69s-.32-.39-.39-.62a14.68,14.68,0,0,1-.38-1.72c-.08-.52-.1-.89-1-.8-.74.08-.88-.46-.59-1,.58-1.09.58-1.12-.79-1.13-.64,0-.24-.55-.63-.68-.58.24-1,.8-1.78.92a4.57,4.57,0,0,1,1.67-2.18c-1-.08-1.68.49-2.46.57,0-.09-.07-.15-.06-.2.06-.5,1.06-.83.42-1.44a4.2,4.2,0,0,0-3.1-.38,31.52,31.52,0,0,0-5.06,2.91L152,182a23.09,23.09,0,0,1,2.21-1.56,4.5,4.5,0,0,0,2.57-3.09c.28-1.36,1.59-2.16,2.8-2.94a1.87,1.87,0,0,0,1.05-1.87,4.73,4.73,0,0,1,2.07-3.9,7.06,7.06,0,0,0-1.71,3.92,3.1,3.1,0,0,1-1.8,2.58,6.15,6.15,0,0,0-2.31,2.72c.79-.55,1.86-.57,2.53-1.44a6,6,0,0,1,4.15-2.3c.79-.08,1-.6,1.4-1,.18-.2.31-.5.68-.42s.23.35.21.57,0,.4.23.36c.94-.14,2-.07,2.65-.86s.92-2,.28-2.35c-1.11-.64-.84-1.49-1.17-2.24-.48-1.11-1.71-1.54-3.28-.92-1.09.42-1.36,0-1.72-.69a10.67,10.67,0,0,1-.51-8.27c.18-.61.22-1.07-.48-1.41a7.89,7.89,0,0,1-3.33-3.34c-.17-.28-.28-.72-.68-.7s-.36.48-.42.79a53.3,53.3,0,0,1-3.78,12.07c-.43.9-.81,1.82-1.33,2.68a5.89,5.89,0,0,0-1,3.45c.16,1.87-1.17,2.73-2.67,3.58a2.74,2.74,0,0,1-2,.3,5.9,5.9,0,0,0-4.44,1.3,5.43,5.43,0,0,0-1.73,1.78,2.15,2.15,0,0,1-1.85,1c-3.62.49-7.24,1.07-10.89,1.44a35.78,35.78,0,0,1-5.85-.08,94.33,94.33,0,0,0,13.76-1.51c-3.84.37-7.74-.18-11.56.52a1.1,1.1,0,0,1-.54,0,11.17,11.17,0,0,0-6.17-.4,2.75,2.75,0,0,1-1.83-.23,7.14,7.14,0,0,0-2.65-.34c-2.49-.3-4.9-1-7.44-1.1l0,0a4,4,0,0,0-1.85-.86,3.63,3.63,0,0,1-2.87-3.34,2.77,2.77,0,0,1,2.76-2.8c1.27-.16,2.18-1.92,1.48-2.87-.21-.3-.45-.14-.68-.05a6.31,6.31,0,0,0-1.95,1.13,4.21,4.21,0,0,1-2.05,1c-.23,0-.47,0-.57-.19s.11-.46.37-.49c1.61-.18,2.46-1.44,3.81-2,.35-.14.5-.36.3-.7a3.36,3.36,0,0,1-.33-2.61,9.18,9.18,0,0,0-3.38,1.89,4.38,4.38,0,0,1-1.26.81c-.24.09-.54.27-.72.06s.11-.47.33-.61q2.33-1.47,4.66-2.91c.2-.13.42-.25.82-.49-1.87-.28-1.56-1.43-1.54-2.43,0-.64-.19-.77-.82-.38A7.67,7.67,0,0,0,99.51,162a1,1,0,0,1-.32.28c-.37.19-.9.55-1.19.2s.33-.59.65-.78c1.46-.86,2.57-2.09,4.09-2.89.18-.09.31-.21.21-.39-.45-.74-.2-1.54-.24-2.3,0-1.25,0-1.25-1.34-.78a3,3,0,0,1,4.33,0c.11.09.26.24.35.22,1-.19,1.38.45,2,1l-1.62.15c-.23,2,1.73,3.67,1.24,5.75-.1.43.28.53.74.47s.57-.34.38-.69-.33-.57-.51-.86-.25-.38,0-.5a.49.49,0,0,1,.58.2,7.32,7.32,0,0,1,.82,1.84,1.52,1.52,0,0,0,.19-1.36c-.36-1.06.21-2.13-.13-3.18A.29.29,0,0,1,110,158c.28-.07.4.12.5.29a20.45,20.45,0,0,0,1.41,2.65,10.31,10.31,0,0,0,1.59,1.87c1.13.93.88,2.14.7,3.29a8.3,8.3,0,0,1-.49,1.9,1.47,1.47,0,0,0,1.06,2c1.34.46,2.59,1.34,4.23,1a2.34,2.34,0,0,1,1.64.18,9.45,9.45,0,0,1-4.89-.11c.23.89.23.9,1.09,1.14.62.18.8.36.67,1-.24,1.26-.06,2.57-.29,3.85-.07.4.27.51.65.46,1.08-.15,2.16-.29,3.22-.49.75-.13.77-.6.56-1.14-.11-.27-.25-.6.14-.78s.5.13.65.35.31.3.55.15a.76.76,0,0,0,.43-.93c-.21-.53-.64-1,.35-1.3,0,0,.08-.18.06-.27-.4-1.76,1-2.68,2.44-3.27,2.26-.93,4.13-2.34,6.28-3.38,1.13-.55,1.79-1.65,2.89-2.3a10.49,10.49,0,0,1,5.46-1.87c.79,0,.81-.3.53-.79a1.62,1.62,0,0,0-1.21-.77,8,8,0,0,0-5.55,1.11,12.39,12.39,0,0,0-3.73,3.34c-.38.47-.59,1.17-1.47,1.22v0c1.32-1.6,2.45-3.35,4.35-4.53,2.41-1.5,5-2.48,8-1.51.57.19.72-.06.52-.47a9.69,9.69,0,0,0-.88-1.57c-2.62-3.73-2.64-7.67-1.32-11.72.34-1.06.75-2.11,1.19-3.14a.83.83,0,0,0-.15-1.06c-3.28-3.31-3.41-7.11-2.24-11.09a9.2,9.2,0,0,1,1.6-3.39,1.21,1.21,0,0,1-.09,1.08c-2.1,4.07-1.77,8.11.17,12.13a1.54,1.54,0,0,0,.6.8c1,.47.79,1,.48,1.79a19.47,19.47,0,0,0-1.71,8.09,14.91,14.91,0,0,0,2.77,8c.58.83,1.32,1.58,1.09,2.67-.07.3.16.79.53.75.56-.06.38-.6.27-.88a13.15,13.15,0,0,0-1.79-3.34c-2.79-3.57-2.68-7.3-.85-11.13a3.86,3.86,0,0,0,.4-1.6,8.08,8.08,0,0,1,.51-2.87.87.87,0,0,0-.2-1.1,5.24,5.24,0,0,1-2-3.9c-.22-1.3-.9-2.47-1.1-3.77a5.26,5.26,0,0,1,.75-3.25c.14,0,.22,0,.26.08.32.29.3,1,.87.88s.35-.66.44-1a6.12,6.12,0,0,1,2.35-3.25c.63-.5,1.29-1,1.92-1.5.19-.16.48-.3.19-.64-.62-.74-.48-1.51.62-1.69,2-.33,3-1.77,4.44-2.68s2.62-2.35,4.59-2.69c.11,0,.27-.14.28-.24s-.16-.28-.35-.31-.51-.06-.76-.09h0c.7-.38,1.28-1,2.26-.88.41,0,.6-.35.86-.58,1.06-.94,1.9-2.07,3.38-2.63.58-.23.73-1,1.6-1,.25,0,.42-.42.18-.74-.39-.51-.77-1-1.17-1.54-.15-.18-.34-.45-.6-.34s-.3.42-.21.69a3.14,3.14,0,0,1,.18.86c-.95-.91-1-2.18-1.82-3.39a7.44,7.44,0,0,0,0,5c-1.7-1.81-1.8-4.22-3.19-6.19a9.16,9.16,0,0,0-.19,3.25c0,.35.12.7.16,1.06s.32.55-.35.77-.15.93-.18,1.53a4.45,4.45,0,0,1-1.5-3c-.4-2.48-1.27-4.87-1.73-7.33l-.06-.38c-.07-.39.17-1-.42-1s-.41.67-.54,1a11,11,0,0,0-.3,2.66c-.44-.17-.12-.59-.62-.81a12.28,12.28,0,0,0,.29,6.52c-.73-.38-.65-1.16-1.34-1.51-.46.77-.1,1.5-.1,2.21a10.89,10.89,0,0,1-1.73-7.2,24.64,24.64,0,0,1,1.75-6.91,7.21,7.21,0,0,0,.24-2.21,16.88,16.88,0,0,1,1.32-4.8c.1-.23.4-.51.1-.71s-.53.11-.74.28a10.06,10.06,0,0,0-4,9.32c0,.25.37.63-.4.62-.37,0-.24.48-.22.75a8.14,8.14,0,0,0,.19,1,2.71,2.71,0,0,1,.1.85c-1.84-3.22-.9-6.49,0-10-1.28.71-1.67,1.72-2.55,2.39a8.54,8.54,0,0,1,1.64-3.07,21.29,21.29,0,0,1,3.84-3.93c.19-.14.46-.42.41-.54-.41-.94.51-1,1.08-1.23a12,12,0,0,0,4.13-2.6,49.13,49.13,0,0,1,6.64-5.39,3.2,3.2,0,0,1,3.23-.54,1.89,1.89,0,0,0,.55.06c-.09-1.17,1.77-.7,1.84-1.86.74.92,1.39.66,2.17.23,1.29-.71,2.62-1.49,4.28-1.2a18.38,18.38,0,0,1,4.37,1.22,5.47,5.47,0,0,0,3.17.52c-1,.4-1,.73-.14,1.19A26.8,26.8,0,0,0,188.68,81a2.32,2.32,0,0,1-1.28.07,7.67,7.67,0,0,0-1.35-.06c-.7.05-1.68-.28-2,.29s.69.87,1.11,1.27c1.18,1.13,2.45,2.2,3.7,3.27.66.56.38.66-.34.92a18.1,18.1,0,0,1-6.51.66c-.69,0-.77-.39-.95-.77-.11-.22-.12-.58-.58-.4s-.2.36,0,.6.22.7,0,.82c-1,.53-1.32,1.6-2.43,2.13l.51-1.49a2.94,2.94,0,0,0-1.35,3.33,3.6,3.6,0,0,1-.64,2.59,4.7,4.7,0,0,0-.67,1.74c-.08.61.15.7.74.53l.65-.17c1.33-.34,1.52-.22,1.63,1,0,.16.08.31.15.6a3.71,3.71,0,0,0,1.31-2.14c.31-2.91,2.81-4.24,5.18-5.64a12,12,0,0,1,4.67-1.37c.29,0,.8-.08.86,0,.85,1.4,3.2,1.06,3.93,2.71.62,1.41,1.63,2.71,1.88,4.24a3.29,3.29,0,0,1-.6,2.13,10.47,10.47,0,0,0-3.09-4.36c-.28.81.18,1.39.26,2a10.28,10.28,0,0,1-.13,3.87,4.49,4.49,0,0,0,.74,4.3c-1.59-.64-2.14-2-3.32-3a14.9,14.9,0,0,0,0,4.32,5.24,5.24,0,0,1-1.84-1c-.46-.32-.63-.22-.67.27-.1,1.11.06,1.22,1.35,1.35,2.93.31,5.76.88,8.11,2.56-2.21-.59-4.33-1.45-6.61-1.87-.58-.1-1.34-.49-1.7-.13s.29.91.51,1.37a2.35,2.35,0,0,1,.29.66,12,12,0,0,1-3.08-2.13,3.31,3.31,0,0,0,.78,1.85,1.34,1.34,0,0,1-.34,0c-.43-.17-.69-.85-1.12-.64s-.19.83-.16,1.27a3.29,3.29,0,0,0,2.88,3,1.28,1.28,0,0,0,1.33-.53c.35-.38-.14-.56-.37-.79s-.57-.35-.46-.62.59-.21.91-.2a25.08,25.08,0,0,1,3.59.22c1.86.36,2.59,1,2.17,2.46-.14.5-.31.76-.88.79-2.89.14-5.66,1-8.58,1-2.18,0-3.32,1.25-4.42,2.62-.62.78-1.33,1.37,0,2.19a2.15,2.15,0,0,1,1,1.86c-.59-.05-.68-.46-.88-.74a4.4,4.4,0,0,0-4.64-1.91c-.67.09-1.34.15-2,.2-.28,0-.63.23-.61-.36,0-.4-.53-.13-.8-.07a51.84,51.84,0,0,1-8.35,1.08,15.61,15.61,0,0,1-3.48-.14,2.87,2.87,0,0,0-2.11.19,4.36,4.36,0,0,1,2.46,1.82c.23.33.75.21,1.16.22a6.07,6.07,0,0,1,2.32.23c-.1.39-.47.36-.72.37-1.82.07-2.56,1.16-3.15,2.4a1,1,0,0,1-1.07.72c-.61,0-1.2.58-1.78.89,0,.37.33.36.57.4a46.81,46.81,0,0,0,12.23-.14,43.08,43.08,0,0,1,8.73-.61,6.71,6.71,0,0,1,3,1.06c.17.1.38.27.17.47s-.34,0-.5,0c-1-.41-1.88-1.11-3.36-.66,1.39.54,2.37,1.36,3.71,1.6,1.09.19,1.27.51.79,1.38a2.13,2.13,0,0,1-.3.42c-.59.55-.48.9.32,1.22A3,3,0,0,1,187,132a16.29,16.29,0,0,0-3-.76,7.63,7.63,0,0,0-4.55.79c-1,.53-1.92,1-2.92,1.48-3.7,1.6-3,3-1.14,5.51a15.92,15.92,0,0,0,1.85,1.92c-.42.15-.75-.24-1.06-.49-1.38-1.14-2.74-2.29-4.06-3.48a2.69,2.69,0,0,0-2.23-.69c-.33,0-.66.12-1,.17-2.1.31-2.5,1-1.55,2.6a10.35,10.35,0,0,0,2.64,2.64c.55.44,1.21.87,1.72-.33-.18,1.49.68,2.13,2,2.5.18,0,.33.17.28.37s-.25.23-.43.27a3.65,3.65,0,0,1-2.78-.52,10.92,10.92,0,0,0-5.45-1.53,5.85,5.85,0,0,1-3.73-2.19l-.48-.48a2.81,2.81,0,0,0,.71,3c.67.68,1.54,1.41,2.8.78.43-.21.56.1.65.32a4.6,4.6,0,0,0,2.37,2.26c.25.13.58.26.46.59s-.47.3-.76.32a6.15,6.15,0,0,1-2.77-.82,4.2,4.2,0,0,0,2.1,2c.67.41,1.7.71,1.22,1.56s-1.44.42-2.25.27c-.66-.11-1.56-.67-1.93,0a1.5,1.5,0,0,0,.87,1.85,30.76,30.76,0,0,1,3,2.14c.18.11.48.17.43.39s-.42.24-.67.22a4.13,4.13,0,0,1-2.76-1.15c.1.69.64.81.95,1.07a15.12,15.12,0,0,1,1.22,1c.74.78,1.4.86,2.17.09a2.62,2.62,0,0,1,1.45-.84c.63-.1.85-.48.65-1a3.46,3.46,0,0,1-.22-1c0-.29.26-.48.55-.55s.35.22.38.43c.11.65.72.83,1.31.88,1.12.09,2.25.07,3.38.09a1,1,0,0,0,.73-.21c.69-.71,1-.38,1.26.3a6.63,6.63,0,0,0,1.34,2.34c.18.2.35.48,0,.69s-.48-.05-.69-.18a6.51,6.51,0,0,0-4.19-1.28,3.81,3.81,0,0,1-2.35-.56c-.46-.28-.94-.27-1.14.31a2,2,0,0,1-.82,1c-.38.26-.33.61-.25,1s.58.14.79.26c.94.52,2.17.58,2.86,1.54a3.46,3.46,0,0,0,1.67.83A1.54,1.54,0,0,1,177,161.4a10,10,0,0,1-.1,1.55c-.37,1.93.93,3.86,3.29,4.67a3.18,3.18,0,0,1,2.42,3,10.4,10.4,0,0,0,1.94,4.53,1.34,1.34,0,0,1,.13,1.68,3.93,3.93,0,0,0,.72,4.64,2.48,2.48,0,0,0,2.75-.11c.27-.27.12-.46-.12-.66s-.87-.48-.79-1c.05-.29.4-.25.66-.24.7,0,.65.5.78.89a1.3,1.3,0,0,0,1.18.79c.58.06.89,0,.86-.67-.07-1.74,0-1.74-2-2.2-3.16-.74-3.37-1-3.24-3.94a4,4,0,0,1,2.44-4,4.14,4.14,0,0,1,4.1,0c.22.13.41.31.69.09a2.42,2.42,0,0,0,.06-3.94c-.43-.27-1.21-.83-1.25.33,0,.18-.07.33-.32.31s-.4-.22-.41-.48c0-.88.75-1.34,1.35-2-.08.74.46,1,1,1.36,1.37.85,1.29,2.2,1.32,3.46a11.14,11.14,0,0,1-.09,2.23,16,16,0,0,0,0,2.42,6.83,6.83,0,0,1,2.84-3.77,2.83,2.83,0,0,0,1.41-2.32c0-.19-.09-.57.36-.41s.76,0,.68-.39,0-1.09-.89-1c-.5.06-1-.31-1.15-.28-1.2.28-1.75-.85-2.76-.87,0,0,0,.05-.14.15,1,.19.77.71.59,1.33a6,6,0,0,0,0,1.74c0,.34.22.7-.27,1a4.53,4.53,0,0,1-.53-2.44,4.25,4.25,0,0,0-.89-2.34c-.12-.18-.42-.36-.24-.6s.48-.13.73-.09c.44.07,1,.28,1.18-.23s-.22-.86-.74-1a1.43,1.43,0,0,1-.93-1c-1.21,1.9-3.56,1.5-5.33,2.2a4.81,4.81,0,0,1-3.7.18c-.43-.16-1.09.11-1.65.2-2.47.43-4.88-1.92-5.35-3.56,0-.19-.11-.41.13-.52s.4.09.55.23a4.91,4.91,0,0,0,1.81,1.13c.57.2.85.06.61-.47s-.26-1,.69-1c.41,0,.54-.3.5-.64a10.71,10.71,0,0,1-.11-1.26c0-.26-.13-.69.37-.67s.23.4.23.63a6,6,0,0,0,1.18,4,1.23,1.23,0,0,0,.25.17c.11-.36.21-.68.3-1a4.42,4.42,0,0,1,3.22-2.78,9.44,9.44,0,0,1,2.7-.65c.8,0,1.08-.4,1.08-1.08,0-1.12.54-1.55,1.84-1.61.86,0,1-.65,1.25-1.19s0-1.09.79-1.12,1.77-.18,2.24.72c.13.25.3.61.73.4a1.29,1.29,0,0,0,.66-1.08c.06-.35-.2-.48-.52-.51l-5.18-.58c-2,1.24-4.72.67-6.8,1.84a4.84,4.84,0,0,1-3.59.4c-.76-.17-1.27-.5-1-1.33.19-.55.17-1.16.31-1.73.47-1.91,2.06-3,4-3.67a29.83,29.83,0,0,1,2.88-.82c.48-.13.87-.27.68-.8a26.61,26.61,0,0,0-1.48-3.33c-.22-.41-.36-.42-.82-.29a24.63,24.63,0,0,0-4.44,1.9,3.81,3.81,0,0,1-3,.28c-.53-.17-1.12-.4-.53-1a.4.4,0,0,0,.11-.35c-.71-1.59.3-3,.74-4.41.16-.54.75-.61,1.13-.89a11.62,11.62,0,0,1,4-2c.29-.08.83-.05.64-.46s-.51,0-.78.07a3,3,0,0,1-.44.06,2.5,2.5,0,0,1,1.21-1.41c1.36-.7,1.93-2,2.9-2.93.41-.41-.11-.57-.42-.7a2.6,2.6,0,0,1-1.4-1.06c-.81-1.51-.44-2.56,1.19-3.78a19.14,19.14,0,0,1,8.16-3.77c1.3-.23,1.92-.86,2-2,0-.73.1-1.4-1.07-1.46,1-1.26,2-2.41,2.14-3.94,0-.45,2.59-2.13,3.11-2.11a1.42,1.42,0,0,1,1.07.45c1.06,1.22,1.8,1.28,3.37.47.46-.24,1.21-.59,1.61,0a1,1,0,0,1-.31,1.55c-.82.41-.57.79-.1,1.23a3.51,3.51,0,0,0,2.58.74c.57,0,.73-.37.73-.82,0-.21-.06-.51.27-.57s.38.25.46.45.27.66.63.78c.79.26.9.69.43,1.37a1.29,1.29,0,0,0,1.29-.87c.19-.42-.06-.74-.45-1a9.63,9.63,0,0,0-4-1.88c-.22,0-.52-.07-.48-.3s.39-.24.64-.24a17.89,17.89,0,0,1,6.48,1.07.77.77,0,0,0,.63.11c-.2-1.1,0-1.27.67-.72.3.23.56.5.89.8a3.63,3.63,0,0,0-2-2.62,23.34,23.34,0,0,0-3.6-1.52,4.56,4.56,0,0,1,2.25.22c.64.16,1.25.41,2,.66-.16-.74-.92-.94-1.31-1.4a9.74,9.74,0,0,1,4.7,3.82c.29.5.55.69,1.19.35a6.35,6.35,0,0,1,7,.54c.32.22.63.73,1.1.49s.1-.72.18-1.06a20.16,20.16,0,0,0,.19-5.8,10.31,10.31,0,0,0-5.84-8.94c-.52-.28-1.14,0-1.72-.29-.87-.43-1.88-.67-2.3-1.59-.17-.38-.47-.3-.83-.19a9.85,9.85,0,0,1-1.52.35A4,4,0,0,1,213.92,96a11.34,11.34,0,0,0-4.73-4.06,4.09,4.09,0,0,1-2.08-2.8c1.62.43,2.92,1.4,4.8,1.25-.67-.6-.91-1.18-.5-1.85.12-.2.26-.44.58-.33s.18.32.09.51-.26.48-.09.74.3.5.63.5.31-.31.4-.5.25-.62.41-.91.09-.51-.27-.61a14.42,14.42,0,0,1-2.83-1.57,6.84,6.84,0,0,0-2.25-.78h0c.9-.13.64-.6.44-1.07s-.54-.92-.27-1.48.43-.59,1-.32c2.46,1.13,2.45,1.1,4.34-.69a23.17,23.17,0,0,1,3.09-2.83c.19-.13.34-.36.7-.25a4.08,4.08,0,0,1-1.66,2.62c-.65.61-1.17,1.23,0,1.86.49.27.23.78.37,1.31a21.3,21.3,0,0,0,3-4.12c.15-.32.23-.92.84-.69s.45.81.15,1.26c-.78,1.18-2.13,2-2.76,3.3-.08.16-.31.3-.17.56.62-.14.7-.85,1.34-1,.28,0,.49-.55.83-.16s.18.68-.23.93c-.14.08-.31.14-.5.23.7.69,1.18,1,1.95,0A35,35,0,0,1,223.73,82c.17-.16.37-.44.64-.28s.11.47,0,.7c-.54,1-1.76,1.5-2.48,2.37-.19.24-.47.42-.67.66s-.53.43-.37.75.38.16.61.15a.66.66,0,0,0,.71-.63c0-.65.49-1,1-1.29.76-.47,1-.14,1.11.45a2.71,2.71,0,0,1,0,.29c.05.48,0,1.14.6,1.24s.6-.6.83-1a1.33,1.33,0,0,1,.91-.76c.3.36,0,.59-.11.85-.25.54-.35,1,.54,1.18.39.06.4.27.44.56.17,1.28,1.15,2,2.67,1.9.32,0,.7-.07.73.27s-.43.27-.69.29a10.74,10.74,0,0,1-2.47.1c-.3-.05-.52,0-.66.22s.08.42.3.55a2.54,2.54,0,0,1,.28.16c.36.29,1.25.25,1.08.8s-.93.26-1.44.35c-.25,0-.52.07-.78.1-.59.07-1.14.22-1.16.85a1.59,1.59,0,0,0,1,1.54.61.61,0,0,0,.62-.07c1.68-.91,2.67-.69,3.48.77.28.52.54,0,.78,0s.67-.54,1-.26-.08.69-.33,1c-.64.86-1.75.88-2.94,1.2a4.71,4.71,0,0,0,3.89-.9,1.58,1.58,0,0,1-1.27,1.64c-.3.09-.76.06-.75.46s.38.4.65.48c.57.17.93.27.52,1-.26.44.1,1.07.31,1.59a20,20,0,0,0,8,9.88c.59.38,1.13.83,1.79,1.24-.44-.57-.17-1,.15-1.51.8-1.29.08-2.45-.58-3.58a9.27,9.27,0,0,0-.76-1c1.6-.3,2.14-1.4,1.33-2.51A44.6,44.6,0,0,0,237.53,98c0,.8.92,1.31.56,2.28A24.64,24.64,0,0,0,234.55,97a1.1,1.1,0,0,1,0-1.7c.79-.81.23-1.3-.41-1.75s-.82-.74-.7-1.32v0a4.91,4.91,0,0,1,2.34,3.09,2.83,2.83,0,0,0,1,1.39,25.71,25.71,0,0,1,7.47,9.4c1.07,2.5,2.95,4.8,3.06,7.6,0,.28.25.58-.1.81s-.63,0-.93-.09a.84.84,0,0,0-.78-.08,19.61,19.61,0,0,0,2.76,5.48,4.45,4.45,0,0,1,.34,5.08c-.19.36-.19.55-.07,1.19.58-.11-.15-.7.5-.84a3.7,3.7,0,0,1,.3,1.46c0,.51.25.67.76.36a2.54,2.54,0,0,1,2.34-.55c.58.18.14-.66.68-.9a1.29,1.29,0,0,1,.52,1c.16,1.12-1.5,3.93-2.73,4.14-1.43.23-2.82.79-4.35.57a14.32,14.32,0,0,0-4.52.28,3.81,3.81,0,0,1-1.34.07,5.44,5.44,0,0,0-3,.43l.93-.56-.1-.24c-1-.09-1.75.73-2.69.93s-2,.49-3,.8-2.11,0-3.06.54c1.77.14,3.46-.4,5.18-.52a22.87,22.87,0,0,1-9.92,1c-3-.38-5.87-1.3-8.9-1.51-.65,0-.86,0-1,.57a22,22,0,0,1-.79,2.33,3.22,3.22,0,0,1-1.21,1.73c-2.08,1.23-2.19,3-2,4.88A11.67,11.67,0,0,1,210,148a14.35,14.35,0,0,0-1,6.58,61,61,0,0,1-.93,11.91,1.42,1.42,0,0,0,.18,1,25.1,25.1,0,0,0,1.7,2.63,7.05,7.05,0,0,1,1.68,4.46,1.84,1.84,0,0,0,.75,1.45,7.67,7.67,0,0,1,2.52,3.52,4.81,4.81,0,0,0,2.61,3.12,3,3,0,0,1,1.65,2.13c.57,1.87,1.5,3.67,2.25,5.5,1.14,2.78,1.94,5.66,3.21,8.41a56.92,56.92,0,0,0,4.59,8.42c.34.49,1,.71,1.4,1.11s1.06.73,1.34,1.32c.08.16.23.55.74.21.26-.17.58.31.76.58.35.54.62,1.12,1,1.63.24.32.62.72.94,0a.7.7,0,0,1,.76-.48c.45.08.1.44.19.66a5.6,5.6,0,0,0,1.42,2,.71.71,0,0,0,.29.14c.33.07.28-.75.69-.29.56.61,1.49,1,1.75,1.76.33,1,1.18,1.41,2.32,1.75l-2-3.62a3.12,3.12,0,0,1,1.4,1.24c.44.57.87,1.14,1.32,1.7.13.17.23.5.56.32s.1-.42,0-.62a13.88,13.88,0,0,1-.81-1.75c.67.26.83.81,1.14,1.27.09.14.2.32.41.28s.27-.29.24-.47a10.41,10.41,0,0,0-.74-1.84c-.08-.22-.64-.78.36-.59.33.06.2-.19.19-.32a2.23,2.23,0,0,0-.85-1.56,8.88,8.88,0,0,1-3.14-4.77c-.14-.63,0-1.31-.75-1.8l.29-.16c.83.5,1.68,1,2.5,1.51a3.48,3.48,0,0,0,1.7.72,4,4,0,0,1,3,1.64,66.35,66.35,0,0,1,5.18,6.49,1.62,1.62,0,0,1,.22,2c-.28.4.05.69.3,1,.69.73,1.54,1.31,2.2,2.07a1.48,1.48,0,0,0,1.74.33c.71-.39.25-1,0-1.49a53.91,53.91,0,0,0-7.16-10.46l-2.29-2.49a1,1,0,0,1,1.14.38,42.36,42.36,0,0,1,6.94,9.17,113.32,113.32,0,0,1,7.48,16.68,1.56,1.56,0,0,0,.64.78,4.92,4.92,0,0,1,2.39,5.24,5.18,5.18,0,0,1-.2,1,7.14,7.14,0,0,0-.45,3.71c.35,2-.84,3.31-2.69,4.22a3.31,3.31,0,0,0-1.8,2c-1.95,5.28-5,10.14-7.84,15.08a96.4,96.4,0,0,0-6.84,13.23c-.52,1.39-.86,2.82-1.4,4.2-.35.9,0,1.26.94,1.6a23.64,23.64,0,0,1,8.93,5.77c-.18.29-.47.18-.71.18-9.34,0-18.67,0-28,.05-1.13,0-1.46-.18-1.28-1.22a12.83,12.83,0,0,1,2.21-6.06.85.85,0,0,0,.25-.73,5.36,5.36,0,0,1,1.66-4.87,28.88,28.88,0,0,0,5.7-9.55,46.8,46.8,0,0,1,2.37-5.15,5.17,5.17,0,0,0,.19-4.44,57.58,57.58,0,0,1-2.35-7.31c-.62-3.06.46-5.76,2.42-8.25a10.45,10.45,0,0,1,2.92-2.7c-.1.48-.47.66-.72.9a12.43,12.43,0,0,0-3.77,5.35,2.4,2.4,0,0,0-.15.57c0,.37-.25,1,.22,1a1.26,1.26,0,0,0,1.22-.72,23.06,23.06,0,0,1,6-7.91c.43-.38,0-1.24-.75-1.48-1.14-.34-2.27-.7-3.42-1a17.87,17.87,0,0,1-8.18-5l1.87,1.28c-.36-.88-1.3-1.22-1.94-1.84a2.42,2.42,0,0,1-.94-1.5,1.24,1.24,0,0,0-.68-1.07,5,5,0,0,1-3.1-4.85c-.54,1.54-1.47.58-2.31.7.53,1.56,2.31,2.29,3.15,3.87a10.44,10.44,0,0,1-2.65-2.46c-1-1.47-2.56-1.76-4.3-2.05-5.42-.88-10.71-2.12-15.3-4.92a29.75,29.75,0,0,1-7.53-6.24,1.48,1.48,0,0,0-1.58-.57,13.17,13.17,0,0,1-8.57-2.11c-1.79-1.06-1.82-1.08-3.15.33a7.57,7.57,0,0,1-5.91,2.55,1.57,1.57,0,0,0-1.18.47c-3.43,3.33-7.87,5.5-12.07,7.94a1.82,1.82,0,0,0-1,1.22,9.36,9.36,0,0,1-4.59,6.13c-1.41.87-1.88,2.4-2.83,3.6a5.32,5.32,0,0,0-1.29,3.86,26.82,26.82,0,0,1-2.81,14.53,24.61,24.61,0,0,1-11.67,11.37,59.12,59.12,0,0,0-16.91,11.82,73.06,73.06,0,0,0-12.54,15.86c-.19.33-.34.61-.88.58s-1.36,0-2,0h-2.35c-.16-.51.66-1,0-1.37-.3-.17-.58.05-.8.23s-.78.59,0,1.1H99.75a30.83,30.83,0,0,1,3-2.43c.84-.51,1.2-1.43,2.21-1.75.06,0,.13-.12.11-.16-.47-1,.48-1.84.52-2.79,0-.32-.09-.64-.52-.61s-.34.38-.35.63c0,.71,0,1.4-1.1,1.58.92-.89.07-2.3,1.26-3.14.23-.16.44-.68-.38-.65-.49,0-.19-.32-.1-.47.65-1.09,1.3-2.19,2-3.26,1.54-2.38,3.44-4.58,4.95-7,1.85-2.91,4.14-5.56,6.06-8.42a6.37,6.37,0,0,0,1.07-2.23c.58-3.18,2.6-5.78,4.34-8.5.54-.85,1.14-1.68,1.69-2.53.2-.3.49-.65,0-.93a.81.81,0,0,0-1.08.25c-.41.55-.51,1.28-1.29,1.62,0,0,0,.18,0,.27.15,1.37-1,2.3-2.68,2.13a13.89,13.89,0,0,1-1.46-.13,2.56,2.56,0,0,0-3,1.54c-1.85,3.18-3.81,6.32-5.62,9.52a8.27,8.27,0,0,0-1.18,2.79.61.61,0,0,1-.23.43c-1.3.71-1.48,2-1.76,3.05-.68,2.59-1.66,5.12-2.17,7.75a19,19,0,0,0-.43,3.58,6.4,6.4,0,0,1-1.58,4.05,47.44,47.44,0,0,0-3.24,4.88,1.76,1.76,0,0,1-1.85.91,44.07,44.07,0,0,0-4.74,0c-2.13.17-3.79-.72-5.45-1.59-.75-.39-.47-1.13-.11-1.66a20.67,20.67,0,0,1,2.28-2.89,57.56,57.56,0,0,0,5.48-5.8,33.81,33.81,0,0,0,4.06-8c1.49-3.78,3.23-7.47,4.14-11.4.7-3,1.19-6.06,1.61-9.12.75-5.47,1.85-10.87,5.62-15.51A23.38,23.38,0,0,1,120,226.56c-.13.27-.43.36-.69.47-5.53,2.49-9.36,6.24-11.37,11.35-.45,1.15-.89,2.31-1.39,3.59a2.22,2.22,0,0,0,1.3-1c1.05-1.67,2.1-3.34,3.08-5a4.48,4.48,0,0,1,3.56-2.53c.63-.07,1,0,1.18.6.39,1,.61,1,1.71.55a21,21,0,0,1,5.88-1.62c1-.1,1.31.34,1,1.14a5.66,5.66,0,0,1-1,1.41c-.44.57-.49,1,.36,1.3.66.22.71.55.19.93-.26.19-.42.55-.88.49-.2-.32.31-.77-.24-1s-.82.18-1.12.47c-.57.56-1.16,1.11-1.69,1.69a22.59,22.59,0,0,0-4,5.3c-.23.5-.5,1-.15,1.49a2.88,2.88,0,0,1,.49,1.68,22.7,22.7,0,0,0,3.4-3.95,17.57,17.57,0,0,1,5.33-5.81c1.66-1.13,3.17-2.54,5.48-2.71.23,0,.51-.1.55-.29.13-.73.89-1,1.39-1.46.73-.68,1.46-1.47,1.31-2.39-.2-1.18.52-1.72,1.47-2.25s1.2-1.42,1.64-2.45a1.31,1.31,0,0,0-.83.8c-.14.25-.22.67-.63.55s-.13-.49,0-.74c.47-1.21.29-1.57-1.08-2.11a12.59,12.59,0,0,0-1.27-.42c-.88-.23-1.07-.73-.81-1.43a9,9,0,0,1,1.61-2.56.67.67,0,0,1,.65-.31c.32.06.31.33.38.54a6.36,6.36,0,0,1-.13,2.71c0,.21-.2.47.14.6s.51-.09.68-.25a3.54,3.54,0,0,0,.57-.72,12.81,12.81,0,0,1,2.79-3.28,2.21,2.21,0,0,0,.67-2c0-.41-.28-.46-.68-.41a6.8,6.8,0,0,0-2.24.64,17.19,17.19,0,0,1-1.91,1,5.34,5.34,0,0,0-3.59,3.32,2,2,0,0,1-1.69,1.56c-2.43.7-4.85,1.41-7.3,2C121.42,226.19,120.79,226.72,119.94,226.59ZM166.1,103.51c-.32.33-1.35.27-.79,1.09-.43-.22-.93-.48-1.21.08-.18.39.31.68.55,1,.1.13.3.27.47.17.35-.2.15-.53.16-.8s0-.32,0-.48a1.51,1.51,0,0,0,.93.76,4.35,4.35,0,0,0-.1-1.81l1.07,1.25c.27-.64.29-1.14-.11-1.49S166.45,103.46,166.1,103.51Zm-.83-.88c-.3,0-.8-.49-.81-.21-.06.73-1.33.52-1.18,1.3,0,.14-.16.2-.32.11s-.45-.2-.42.14a1.47,1.47,0,0,0,.29.71c.19.23.35,0,.53-.09a7.38,7.38,0,0,1,1.33-.83c.64-.27.8-.62.56-1.16.22.25.39.61.87.34.32-.17.47-.44.3-.74s-.3-.6-.67-.56-.36.43-.43.7A1.47,1.47,0,0,0,165.27,102.63ZM228,210c0-.85-.11-1.64-.56-1.91-1.33-.8-.75-2-1.14-3-.62-1.56-1.27-3.12-1.85-4.69-1.11-3-2.55-5.83-3.84-8.73a39.53,39.53,0,0,0-2.55-5.08c-1.36-2.17-2.95-4.23-3.73-6.64-.39-1.2-1.7-1.44-2.79-1.89a.9.9,0,0,0-.93.22,10.21,10.21,0,0,0-2.61,3.25c-.8,2.17-.14,4.31.74,6.27a76.45,76.45,0,0,0,4.06,7.26c1.39,2.37,2.77,4.75,4.23,7.09a26.16,26.16,0,0,0,3.67,4.65c.17.17.36.44.64.32s.15-.46.07-.69c-.2-.59-.43-1.17-.64-1.75,1.14.87,1.39,2.18,2.49,3.25-.13-.89-.67-1.48-.52-2.21a29.43,29.43,0,0,0,2.72,4.1c.05-.67-.56-1.23-.34-2.07a18.6,18.6,0,0,1,1.42,2.48c.11.29.28.78.67.66.54-.17.07-.6.05-.92s-.36-.55-.1-1Zm-80-58.58a4.28,4.28,0,0,1,.09,1.68c0,.25,0,.71.11.73.86.18.65.73.66,1.21,0,.19,0,.44.26.46a.45.45,0,0,0,.45-.38,2.8,2.8,0,0,0,.09-.58c0-.52.17-.86.87-.48.31.16.73.27.9,0,.36-.63,1.06-1.18,1-1.92a4.62,4.62,0,0,1,1-3.66c.3-.35.16-.81.07-1.23A3.87,3.87,0,0,1,154,144a5.51,5.51,0,0,0,.62-1.14c.24-.66-.27-1.65,1.12-1.77,0,0,.08-.17.08-.27,0-.66,0-1.32,0-2.13-.56.4-.27.9-.86,1.34a7.12,7.12,0,0,0,0-3.38c-1.08.76-1,1.88-1.48,2.82a24.76,24.76,0,0,1,.65-4,30.52,30.52,0,0,0-2.63,5.07c.31-2,1.25-3.89,1.31-5.93-.76,1-1.15,2.25-2,3.25a10.8,10.8,0,0,0,.5-2.36c0-.3.2-.73-.23-.87s-.55.27-.75.49c-2,2.24-4.07,4.43-4.86,7.26a2.64,2.64,0,0,1-.37.59,7.83,7.83,0,0,0-.75,4.37c0,.56.07,1,.86,1.05a1,1,0,0,1,0,.55c0,.25-.19.49-.23.75s-.21.74.2.87.52-.34.68-.6.05-.4.43-.45c0,1.69-.82,3.39.07,5.33.41-1.49.27-2.79.9-4,.18.82-.17,1.63.07,2.64A7.23,7.23,0,0,1,148,151.44Zm70,57.66c-.68-1-.45-2.24-1.18-3.26A25.76,25.76,0,0,1,215,202.3a1.28,1.28,0,0,0-.65-.76,1.19,1.19,0,0,1-.79-1.39,2.49,2.49,0,0,0-.73-1.89,4.3,4.3,0,0,1-.49-1c-.43-.91-.34-2.19-1.93-2.45a.27.27,0,0,1-.21-.39c.48-1.39-.76-2.2-1.49-3.16a.67.67,0,0,0-1.22.1,9.39,9.39,0,0,0-1.43,3.86,8.62,8.62,0,0,0,1.36,4.66c.17.32.27.71.67.88s.47-.55.95-.45c.17,1.67.17,1.67,2.25,1.92.25,0,.44.11.51.32.3,1,.86,1,1.55.3.24.15.21.27.18.4a3.23,3.23,0,0,0,1.57,2.73,1.32,1.32,0,0,1,1,1A3.16,3.16,0,0,0,218,209.1Zm.52-92.77c.89,0,1.78,0,2.67,0,.33,0,.81,0,.88.28s-.43.37-.73.44a27.88,27.88,0,0,0-3.52,1c-.45.16-1,.21-1.23.62s.62.5.55.9c-1.12.58-2.68-.33-3.6,1-.3.44-.29.55,0,.79a3.67,3.67,0,0,0,1.85.67c1.39.13,2.72.51,4.09.66,2.27.24,4.56.92,6.55-1a15,15,0,0,0,1.41-2.12c.17-.23-.12-.45-.36-.53-1.36-.5-2-1.79-3.36-2.25.29-.33,1-.15.94-.53s-.65-.35-1-.4A12.47,12.47,0,0,0,218.5,116.33Zm-59.59,6.92a5.64,5.64,0,0,1,2-1.5c.35-.2.74-.43.71-.82s-.48-.66-.9-.79a5,5,0,0,0-4.29.44c-2.78,1.78-4.54,4.34-6.72,6.59-.26.27-.35.72.15.77a7.71,7.71,0,0,0,3.81-.14,40.72,40.72,0,0,0,6.84-4.2,1.33,1.33,0,0,0,.64-1.21C160.36,122.43,160,123.13,158.91,123.25Zm3-26c0-.29.06-.45.09-.6s.16-.42-.11-.52-.41.11-.49.29a10.08,10.08,0,0,0-1.06,5.74,3.51,3.51,0,0,1,2.49-1.58c.26,0,.55-.07.71.17s0,.37-.13.54l-.84,1.38c-.09.15-.15.32.05.43s.29-.08.43-.18a32.52,32.52,0,0,1,3.35-2.17c.64-.32,1.38-1.09,2.44-.08-.33-1.57.65-3.13-1.19-4.13-.12-.06-.16-.3-.15-.45.08-.66-.24-.7-.83-.44a1.47,1.47,0,0,1-.66.08c-1.75-.19-2.95.35-3.41,2-.23-.65.22-1,.14-1.5C162.28,96.42,162.41,96.9,161.94,97.25Zm-19.42,69.56a17.7,17.7,0,0,0-6.81,1.17c-.78.32-1.64,2-1.18,2.27.93.57,1.51,1.49,3,1.44,2.62-.08,5.09-.16,6.45-2.5.38-.66,1.52-1.27,1.05-2S143.36,166.94,142.52,166.81Zm31.11,17.44a5.52,5.52,0,0,0-1.71-3.9c-.16-.14-.3-.34-.55-.3s-.31.34-.35.55c-.69,3.92-2.24,7.74-1.84,11.79,0,.53-.45,1.38.39,1.51s.76-.78.93-1.26c.75-2.15,2.37-4.07,2.32-6.44a1.08,1.08,0,0,1,.4-.68A1.4,1.4,0,0,0,173.63,184.25Zm3.09,12.12a3,3,0,0,0-2.66,1.6c-.22.44-.43.89-.66,1.33a14.17,14.17,0,0,0-1.49,5.54c0,.23-.1.58.32.62s.42-.26.49-.47a2.55,2.55,0,0,1,.92-1.07,19.77,19.77,0,0,0,3.12-3.29c.77-1,.37-2.27.85-3.36C177.77,196.9,177.22,196.48,176.72,196.37Zm-14.55-34.94a10.63,10.63,0,0,0,.81,3.76c.1.22.11.53.52.55,1,0,2.08-1.25,1.57-2-.64-.95,0-1.6.6-2.12,1.41-1.27,1.53-2,.21-3.23-.17-.17-.37-.32-.53-.5-.9-.94-1.52-.89-2.29.15A6.4,6.4,0,0,0,162.17,161.43Zm30.21-27.71c.26.33.37.65.54.68,1.23.16,2.46.28,3.69.38a.64.64,0,0,0,.47-.2c.39-.57.76-1.26.41-1.84s-.74-1.77-1.6-1.73c-1.25.06-2.3-.68-3.65-.27s-2.1,1.26-1.55,2.32a2.32,2.32,0,0,1,.42,1.2c0,.31,0,.74.46.77s.55-.36.61-.69C192.21,134.22,192.26,134.1,192.38,133.72ZM260.7,237.15c.87-.11,1.91,0,2.42-.77s0-1.57-.51-2.25a11.55,11.55,0,0,0-2.85-2.72c-1.12-.72-1.89-.45-2.07.75a2.09,2.09,0,0,0,.1,1.05,26.22,26.22,0,0,0,1.32,3.1A1.45,1.45,0,0,0,260.7,237.15ZM177.63,109.72a14.55,14.55,0,0,0-1.35,1.64,3.39,3.39,0,0,0-.6,1.64c0,.44.8.49,1.16.82a5.39,5.39,0,0,0,1.49,1.31c1.1.49,1.72.21,1.86-.85.09-.77.22-1.54.35-2.31.09-.54.49-1.1.21-1.61a3.3,3.3,0,0,1-.16-2.29c.13-.82.27-1.64.41-2.46-.43.47-.62,1-1,1.43a4.35,4.35,0,0,0-1.23,3.34,12.14,12.14,0,0,0,.22,3.29c.06.26.32.67-.14.73s-.39-.41-.45-.68c-.09-.48-.12-1-.2-1.45C178,111.49,177.83,110.7,177.63,109.72Zm-39.46,96.61c-.24.09-.33.09-.36.14-2.23,2.9-2.2,5.63.08,8.5.12.16.21.37.48.35a.67.67,0,0,0,.63-.5,14,14,0,0,0,.64-2.36C139.72,210.31,138.33,208.46,138.17,206.33Zm55.15-62.09c-.1.4.35.7.52,1.08.52,1.13,1,1.25,2,.29,1.14-1.19,2.14-2.47,3.2-3.72.3-.36.15-.45-.32-.54-1.1-.2-2.18-.49-3.27-.72-.46-.1-1-.57-1.38,0a1,1,0,0,0,.18,1.44c.48.4.3.62-.17.9A1.48,1.48,0,0,0,193.32,144.24Zm-25.12-56a9.41,9.41,0,0,0-.45-2.38c-.11-.43-.34-.54-.63-.17-1.43,1.89-3,3.74-2.78,6.17,0,.34,0,.75-.41.82-1.28.25-1.22,1.28-1.67,2-.22.35,0,.52.41.64a.85.85,0,0,0,1.21-.52,10.9,10.9,0,0,1,3.26-4.36A3.31,3.31,0,0,0,168.2,88.28Zm-56,73.63c-1.45.67-1.47,2-1.89,3.06-.1.25-.09.36.26.33.75-.05.47.29.29.58s-.38.38-.39.57a2.38,2.38,0,0,0,1.75,2.22c.36.13.69.31,1.18.52a2.4,2.4,0,0,1,0-2.2A4.5,4.5,0,0,0,112.18,161.91ZM182.54,115a1.47,1.47,0,0,0,1-.74c.45-.78.9-1.46,2.12-.88a.59.59,0,0,0,.74-.26c-.57-.37-1.25-.76-1.22-1.48a3.27,3.27,0,0,0-.94-2.38,8.35,8.35,0,0,1-1.47-3.44C181.53,109,183.22,112,182.54,115Zm-15.16,12.24c-.18-.13-.25-.24-.33-.24-2.48-.1-4.91-.7-7.41-.45-1.68.17-3.37.4-4.48,1.71-.18.21-.5.37-.22.65s.46.06.64-.12.44-.29.55-.05c.4.93,1.1.5,1.63.23a15.72,15.72,0,0,1,7.47-1.5A5.57,5.57,0,0,0,167.38,127.26Zm-51.73,48.87c0-.73,0-1.39-1.14-1a.67.67,0,0,1-.77-.29c-.17-.29,0-.5.27-.67s.71-.45.68-.92c-.08-1.18-2.42-2.67-3.76-2.4-.43.09-.64.27-.3.59.84.8,1,1.93,1.77,2.76a3,3,0,0,1,.74,1.9,1.62,1.62,0,0,0,1.87,1.26C116,177.28,115.42,176.49,115.65,176.13Zm50-68.71c.62-.06,1.29-.11,2-.2,1.57-.22,3.73-2.32,3.73-3.65,0-.33.17-.94-.47-.86-.36,0-1.31,0-1.06.86.09.28.12.86-.33.78-.67-.14-.95.83-1.62.31-.23.48-1.12.31-1.15.5-.1.79-1.07.66-1.47,1.16-.25.29-.72.61-.65.93S165.24,107.34,165.65,107.42Zm18.14,76.92c-.19-2.8-1.92-4.73-4.61-6.13-.27-.14-.56-.46-.89-.24s-.16.54-.14.82a1.2,1.2,0,0,0,.47.76c.52.5,1,1,1.54,1.53C181.32,182.18,182,183.72,183.79,184.34Zm22.66-9.91a4,4,0,0,0,0,.77c.15.65.32,1.46,1.17,1.53a1.6,1.6,0,0,0,1.7-1.77,7,7,0,0,0-1.27-3c-.16-.25-.36-.56-.75-.52s-.47.46-.56.76A7.52,7.52,0,0,0,206.45,174.43ZM170.06,87.17c-.28,2.48.66,4.87.65,7.34-.45-.57-.56-1.26-1.18-1.82-.28.66-.54,1.23-.75,1.81-.12.32-.47.72-.07,1a2.76,2.76,0,0,0,2.06.12.65.65,0,0,0,.61-.7A26,26,0,0,0,170.06,87.17ZM113.15,252c.08-.38,0-.54-.25-.64a1,1,0,0,0-1,.11,9.71,9.71,0,0,0-2.23,3.1c-.23.46.16.89.71,1.07s.7-.22.9-.54.39-.55.56-.83C112.29,253.51,112.76,252.71,113.15,252ZM214.07,94l2.22-.1c.27,0,.54-.05.53-.38,0-1-1.81-2-2.79-1.51a1.68,1.68,0,0,1-1.28.08c-.28-.09-.61-.22-.82,0A.59.59,0,0,0,212,93,4.69,4.69,0,0,0,214.07,94Zm-47.68,46.31c-.44-.88-.82-1.72-1.28-2.52a5.25,5.25,0,0,0-2.8-.25.53.53,0,0,0-.27.59c.18.81.91,1.21,1.63,1.64a.93.93,0,0,0,1.34-.1.42.42,0,0,1,.65.11C165.82,140,165.8,140.34,166.39,140.34Zm.2-28.83a.72.72,0,0,0,.64-.1c1.33-1-.81-1.55-.41-2.5.15-.35-.47-.51-.92-.43s-.89.27-1,.72a3.05,3.05,0,0,0-.06,1.89c0,.06.18.09.29.12Zm37.1,36a.31.31,0,0,0,.28.36c.37.06.54-.19.7-.4a15.16,15.16,0,0,0,2.56-4c.14-.39.79-.91.19-1.19s-.39.54-.7.76a5.54,5.54,0,0,1-.63.38,2.35,2.35,0,0,0-.89.85c-.67,1-.22,2.34-1.47,3.11C203.7,147.48,203.7,147.52,203.69,147.55Zm-25.15,27.11c-.6,0-.71.15-.47.45a4.66,4.66,0,0,0,.79.67,9.66,9.66,0,0,0,4.07,1.54c.28.05.58.46.8,0s0-.64-.53-.77a17.84,17.84,0,0,1-3.36-1.34C179.39,175,178.89,174.8,178.54,174.66Zm42.26-59.32c.86,0,1.72,0,2.58,0,.63,0,1.26.08,1.9.12a1,1,0,0,0,1.11-.66c.12-.49-.53-.44-.86-.53A5.24,5.24,0,0,0,220.8,115.34ZM212,125.91a6.57,6.57,0,0,0,2-.32c.19-.07.53-.25.26-.39-.88-.47-1.83-.85-2.76-1.25,0,0-.16,0-.19.08-.36.49-.95,1-.8,1.54s.9.28,1.4.34Zm-51.27,19.3a2.88,2.88,0,0,0,3.6,2.09,3.47,3.47,0,0,1-.6-1.24c-.08-.64-.64-.75-1.15-.63A2.77,2.77,0,0,1,160.73,145.21Zm34.89,13a6.91,6.91,0,0,1,1.52-.17,2.29,2.29,0,0,0,1.86-.71c.52-.42.32-.87-.2-1.23a.72.72,0,0,0-1.17.24c-.12.2-.21.51-.5.48C195.88,156.65,196,157.55,195.62,158.17Zm-12.86,15.52c-.24-1.24-.7-2.36-1-3.53a2.78,2.78,0,0,0-.54-.84c-.1-.13-.27-.28-.45-.2s-.3.26-.28.38a6.64,6.64,0,0,0,.49,2.23A11.47,11.47,0,0,0,182.76,173.69Zm-62.2,73.67c0-.35,0-.8-.53-.72a2.48,2.48,0,0,0-2,1.41c-.4.9.61.48.92.67.69.44.74.39.77-.26,0-.2.12-.29.32-.34C120.52,248,120.49,247.65,120.56,247.36Zm59.6-78.4c0-.72-.63-.86-1.13-1.1-.21-.11-.51-.28-.7,0s-.09.74.08,1.11a1.17,1.17,0,0,0,.2.34c.35.42.18,1.38,1,1.23S179.82,169.43,180.16,169Zm48.7-48.15c-.73,0-1.35,0-1.26.8s.64.75,1.29.62c.44-.08.89-.14,1.32-.25s.77-.09.81-.41-.46-.34-.74-.45A3.84,3.84,0,0,0,228.86,120.81Zm-58.3,43.3c.26,0,.42,0,.43-.31a2.26,2.26,0,0,0-1.82-1.66c-.53,0-.74.23-.72.66C168.47,163.42,169.64,164.14,170.56,164.11Zm59.7-33a15.23,15.23,0,0,0,4.32-1c.3-.14.8-.29.53-.7s-.69-.25-1-.08A30.33,30.33,0,0,1,230.26,131.08ZM170.18,102.4c.38-.11,0-.73.81-.7.43,0,.49-.7.24-1.15s-.56-.41-1-.23C168.8,100.89,168.78,101.4,170.18,102.4Zm23.89,74.42a2.49,2.49,0,0,0-.48,2c0,.21,0,.75.23.58.58-.45,1.74.36,1.94-.7a.39.39,0,0,0-.4-.48C194.28,178.32,194.16,177.69,194.07,176.82Zm12.81-36.23c-.12-.39,0-1.2-.67-1.16s-.93.81-1,1.36.47.74,1,.78C206.88,141.62,206.82,141.1,206.88,140.59Zm-9.19,14.64a2.35,2.35,0,0,0-1.67-1.36.56.56,0,0,0-.56.52,4.34,4.34,0,0,0,1.64,1.37C197.5,155.74,197.69,155.52,197.69,155.23Zm-87,19.88a4.26,4.26,0,0,0-1.62-2.06.69.69,0,0,0-1,.14c-.37.41.11.47.35.61ZM252.48,219a.32.32,0,0,0-.11.28,3.76,3.76,0,0,0,.84,1.85.45.45,0,0,0,.73-.11C254.22,220.57,253.29,219.08,252.48,219ZM174.15,101a5.6,5.6,0,0,0,0,2,.47.47,0,0,0,.5.44c.27,0,.3-.24.34-.43a3.64,3.64,0,0,0,.08-2c-.43.06-.17.51-.53.57C174.22,101.48,174.52,101.09,174.15,101Zm27.17,31.38-.26.08c.06.47.13.94.18,1.41a.58.58,0,0,0,.8.56c.57-.12.53-.55.34-.85A10.72,10.72,0,0,0,201.32,132.35ZM180.47,103.1a12.4,12.4,0,0,0-1.14,4A7,7,0,0,0,180.47,103.1Zm-4.28,1.5c.1,0,.15,0,.17,0,.52-.34,1.06-2.38.73-2.81-.05-.06-.22-.13-.25-.11s-.27.19-.26.28C176.68,102.88,176.11,103.71,176.19,104.6Zm23.17,28.53c-.39,0-.93-.1-1,.48,0,.34.29.54.67.47s1.08-.06,1.13-.6S199.72,133.19,199.36,133.13ZM218.71,93c-.14-.42-.09-1-.88-1-.35,0-.47.2-.42.45.11.47.18,1,.9,1.08C218.64,93.53,218.75,93.3,218.71,93Zm-20.42,72.59c.55,0,.72-.39.81-.79.05-.21,0-.43-.34-.37-.49.09-1,.28-1,.77C197.7,165.46,198,165.57,198.29,165.59Zm8.6-48.75a1.77,1.77,0,0,0,1.53,1.28c.36.06.46-.17.44-.43s-.18-.48-.39-.35C207.75,117.8,207.64,117,206.89,116.84Zm-14,28.6a3.59,3.59,0,0,0,.49,2.21A2.11,2.11,0,0,0,192.88,145.44ZM220.57,133a11.09,11.09,0,0,0,3.68.54A11.93,11.93,0,0,0,220.57,133Zm-45.43-33.5-.21-2c0-.17-.11-.34-.33-.32s-.39.28-.29.43C174.71,98.15,174.75,98.85,175.14,99.48Zm-39.91,75.77c.45-.18,1-.34,1.17-.78.08-.15-.19-.23-.38-.25a.91.91,0,0,0-1,.69C134.93,175.07,134.94,175.22,135.23,175.25Zm-28.45.35c-.23-.55-.4-1-.61-1.43a.35.35,0,0,0-.41-.25.33.33,0,0,0-.23.4C105.62,174.91,106,175.33,106.78,175.6ZM151.39,124a2.44,2.44,0,0,0-1.39,1.19.33.33,0,0,0,.2.49c.23.08.33-.09.41-.23Zm73.35-29.56a4.41,4.41,0,0,0-1.57-2A3.14,3.14,0,0,0,224.74,94.42Zm-57.23,7.41c-.11-.32-.18-.71-.68-.76-.32,0-.42.23-.4.47s.06.76.56.82C167.3,102.4,167.49,102.14,167.51,101.83Zm24.74,78.36c.43,0,.37-.26.41-.46s.14-.55-.32-.58a.59.59,0,0,0-.66.41C191.6,179.93,192,180.05,192.25,180.19ZM137.65,225a.56.56,0,0,0-.52.54c0,.3.14.51.51.48a.56.56,0,0,0,.56-.51C138.2,225.26,138,225.09,137.65,225ZM166,93.35a.64.64,0,0,0-.64.09c-.3.2-.56.43-.49.8,0,.14.08.3.25.28.42-.06.52-.42.71-.68A1.57,1.57,0,0,0,166,93.35Zm1.85,7.24c-.28,0-.4.16-.35.32.14.37.1.86.69,1,.2,0,.39-.14.34-.28A1.57,1.57,0,0,0,167.87,100.59Zm38.45,31a1.28,1.28,0,0,0-1.35-.18c-.06,0-.14.19-.1.23.31.37.75.12,1.14.13C206.09,131.81,206.18,131.72,206.32,131.63Zm-42-25.66c-.17-.33-.2-.83-.74-1-.25-.06-.31.24-.27.43a1.13,1.13,0,0,0,.78.88C164.28,106.4,164.33,106.19,164.28,106Zm20.59,1.22a2.93,2.93,0,0,0,.15,1.94A3.65,3.65,0,0,0,184.87,107.19ZM111,162c.8-.78.8-.78,0-1.27A2.09,2.09,0,0,0,111,162Zm36.36,11.14a1.34,1.34,0,0,0,1.13-1.3Z"/><path d="M184.94,120.11c.49-2.13,2.41-2.35,4.29-2.63a44,44,0,0,1,5.13-.59,2.81,2.81,0,0,1,1.31.14,5.09,5.09,0,0,1-2.33,1.14,16.82,16.82,0,0,0-7,3.59.88.88,0,0,1-1.1.19c-1.31-.67-2.05-4.48-1.06-5.5a2.39,2.39,0,0,1,2.53-.53c-.1.46-.55.46-.86.58-1.59.64-1.67.75-1.42,2.3.07.4.16.79.24,1.19Z"/><path d="M180.63,151.92c-.15-.07-.3-.1-.33-.17-.92-2.14-3.37-2.76-5.25-3.95-.52-.33-1.38-.64-1.15-1.28s1-.09,1.53-.18a15.35,15.35,0,0,0,2.48-.28c-1.89-.37-1.75-2-2.92-2.66a.31.31,0,0,1,0-.52c.24-.16.41,0,.56.15a20.07,20.07,0,0,0,2.87,2.44c.87.53.78,1.67.87,2.54a6.58,6.58,0,0,0,1.34,3.35C180.78,151.52,180.93,151.68,180.63,151.92Z"/><path d="M184.23,123.59a1,1,0,0,1-1-.47c-1.32-1.5-3.19-1.92-5.23-2.06a30.7,30.7,0,0,0-6.5,0c-.26,0-.6.12-.83-.18.08-.06.15-.16.23-.17,2.75-.23,5.32-1.11,8-1.58,1.07-.19,1.78,0,2.17,1a4.63,4.63,0,0,0,1.73,2A4,4,0,0,1,184.23,123.59Z"/><path d="M141.18,199.41a10.46,10.46,0,0,1,1.07-3.46,2.25,2.25,0,0,1,.52-.63A1.07,1.07,0,0,1,144,195c.47.21.35.64.25,1-.38,1.29-.78,2.57-1.25,3.84-.15.41-.44.91-1.12.74S141.12,199.9,141.18,199.41Z"/><path d="M232.3,206.47c-.41-.35-1-.15-1.5-.09s-.94,0-.68-.45a5.48,5.48,0,0,0,.76-2.6C232.33,204.05,233.06,205,232.3,206.47Z"/><path d="M117.73,180.93a3.05,3.05,0,0,1-3.61-.28,2.15,2.15,0,0,0-1.75-.39,7.64,7.64,0,0,1-5-1.16c.62.14,1.24.29,1.86.41a9.82,9.82,0,0,0,1.76.3,7.33,7.33,0,0,1,4.24,1A3.29,3.29,0,0,0,117.73,180.93Z"/><path d="M98.92,173.19a6.69,6.69,0,0,1-1.82-2.85,6.25,6.25,0,0,0-1.28-2.66c-.43-.44-.33-1.09,0-1.76.1.53-.23,1.14.71,1.16.28,0,.34.33.37.56A11.17,11.17,0,0,0,98.92,173.19Z"/><path d="M189.33,122.49c-.77,1-2,1.44-2.75,2.39a.42.42,0,0,1-.67,0,.6.6,0,0,1,0-1A5.72,5.72,0,0,1,189.33,122.49Z"/><path d="M222.52,186.68a13.32,13.32,0,0,1,5.62,5Z"/><path d="M129.5,166.45c.07.47-.24.7-.69.88a37.46,37.46,0,0,1-9.1,2.52c3.1-1,6.13-1.71,9-2.79.34-.12.76-.15.78-.59Z"/><path d="M155.27,118.32c-.06.28-.06.63-.51.65a51.07,51.07,0,0,0-5.65.61,2.62,2.62,0,0,1,1.84-.73,21.94,21.94,0,0,1,3.8-.26c.22,0,.46,0,.52-.26Z"/><path d="M208.08,85.58a1,1,0,0,1,0,1.62,5.51,5.51,0,0,0-.64,1.26c-.47-.41.17-.87-.14-1.25-.59.07-.28.64-.73.84-.18-.74.27-1.22.72-1.72.24-.27.78-.3.77-.75Z"/><path d="M228,105.93a19.88,19.88,0,0,0-3.32-5.74A8.63,8.63,0,0,1,228,105.93Z"/><path d="M233.46,92.25c-.21-.44-.34-.85-1-1.07-.86-.29-.58-1.09-.65-1.71,0,0,.15-.17.23-.17a.78.78,0,0,1,.69.44,6.29,6.29,0,0,1,.72,2.53Z"/><path d="M105.34,178.05l.61.38c-2-.09-3.94-.19-5.09-1.83,1.46.66,2.75,1.62,4.52,1.48Z"/><path d="M223.68,78.36a3.86,3.86,0,0,1-1.92-.86c-.38-.26-.23-.48,0-.73s.51,0,.73.06C223.17,77.16,223,78,223.68,78.36Z"/><path d="M228.16,203.41c.46-.06.71-.66,1.26-.35.15.09.07.31,0,.44C229,203.89,228.57,203.64,228.16,203.41Z"/><path d="M220.23,84.3a.34.34,0,0,1-.37-.31c0-.3,0-.61.34-.75s.33.11.33.28A.91.91,0,0,1,220.23,84.3Z"/></g><path class="cls-1" d="M299.38,176A123.52,123.52,0,1,1,175.86,52.52,123.33,123.33,0,0,1,299.38,176Z"/><circle class="cls-1" cx="176.04" cy="176.04" r="164.5"/><polyline class="cls-2" points="114.02 283.72 102.95 276.51 97.12 272.06"/><path class="cls-3" d="M98.62,289l-.08-.65a2,2,0,0,0-.21-1,2,2,0,0,0-.52-.81A1.93,1.93,0,0,0,97,286a1.84,1.84,0,0,0-1-.22l-.66.09a2.53,2.53,0,0,0-1.11.64l-.39.51a2.53,2.53,0,0,0-.34,1.26l.08.65a1.88,1.88,0,0,0,.22,1,1.83,1.83,0,0,0,.51.8,1.85,1.85,0,0,0,.81.52,1.88,1.88,0,0,0,1,.22l.67-.09a2.52,2.52,0,0,0,1.1-.65l.39-.5a2.43,2.43,0,0,0,.34-1.26Z"/><path class="cls-3" d="M96,285.67c-1.75-.05-6,.06-6.37-2.37l-.25,1.92.16-.26-.9.9c.38-.21,1.46.72,1.73.91.86.61,1.68,1.26,2.51,1.91,1.84,1.45,3.66,2.92,5.52,4.34a51.37,51.37,0,0,0,5.61,3.77,19,19,0,0,0,6.27,2.57,2.54,2.54,0,0,0,3.07-3.07c-.34-2.08-2.58-4.08-4.12-5.41a23.88,23.88,0,0,0-5.49-3.63A52.57,52.57,0,0,0,97.42,285a19.78,19.78,0,0,1-2.78-1,15.6,15.6,0,0,1-1.38-.77l-.46-.32c-.3-.31-.36-.33-.17-.07l-4.57,1.93a36.33,36.33,0,0,0,13.87,11.62,2.52,2.52,0,0,0,3.22-.65,2.48,2.48,0,0,0-.19-3.28c-2-1.74-4.18-3.39-6.32-5l-3-2.24c-.56-.42-1.12-.83-1.67-1.26-.15-.12-.31-.23-.46-.36s-.45-.62-.26-.12l-3.67,2.82,15.89,10.09L108,292c-5-2.74-8.37-7.4-12.41-11.24l-3,3.93a59.41,59.41,0,0,1,17.3,11.86l3-3.92a19.74,19.74,0,0,1-5-3.7c-1.67-1.49-3.29-3-4.87-4.62-2.91-2.9-5.7-6.25-9.55-7.95-2-.85-4.22.56-3.67,2.83a42.77,42.77,0,0,0,3.34,8l2.16-3.76c-.74,0-1.69-1.14-2.16-1.63a7,7,0,0,1-1.85-2.56l-.25,1.93.12-.18-.9.89a4.61,4.61,0,0,1,1.36-.65c.53-.11.6,0,1.1.28a12.25,12.25,0,0,0,4.47,1.06c2.16.2,3.3-2.87,1.77-4.26a18.64,18.64,0,0,1-2.78-3.11l-3.92,3c3.85,3.22,7.83,6.19,11.86,9.17,1.67,1.23,2.91,3.49,5,4,3.1.69,4.21-2.22,5.32-4.46a2.59,2.59,0,0,0-.89-3.42,43.64,43.64,0,0,0-4.17-2.83,19.68,19.68,0,0,1-3.66-2.16l-3,3.93,1.11.84,2.53-4.32a9.41,9.41,0,0,1-1.53-1.2c-2.32-2.24-5.86,1.3-3.54,3.53a16.26,16.26,0,0,0,2.54,2,2.53,2.53,0,0,0,3.42-.9,2.56,2.56,0,0,0-.89-3.42l-1.11-.84c-2.29-1.72-5,2-3,3.93a20.81,20.81,0,0,0,4.27,2.7,42.76,42.76,0,0,1,4.56,3.07l-.89-3.42-.63,1.26c-.11.2-.69,1-.64,1.26,1.45.21,2,.07,1.52-.41l-.25-.29a12.36,12.36,0,0,0-.84-.93,31.53,31.53,0,0,0-4.44-3.44c-3.16-2.2-6.12-4.67-9.08-7.14a2.53,2.53,0,0,0-3.28-.19,2.48,2.48,0,0,0-.65,3.22,24.57,24.57,0,0,0,3.56,4.12l1.77-4.27a6.28,6.28,0,0,1-2.45-.65,5.78,5.78,0,0,0-3.17-.74c-2.11.17-5.41,1.49-5.15,4.06.2,1.9,2,4,3.33,5.25,1.54,1.53,3.3,2.86,5.55,2.94,2,.07,2.93-2.14,2.16-3.76a36.26,36.26,0,0,1-2.84-6.82L91,280.7c3.74,1.64,6.35,5,9.19,7.82,1.59,1.57,3.22,3.11,4.91,4.57a21.28,21.28,0,0,0,5.3,3.87,2.54,2.54,0,0,0,3.22-.64,2.5,2.5,0,0,0-.19-3.28A63.26,63.26,0,0,0,95.1,280.39a2.54,2.54,0,0,0-3.23.65,2.5,2.5,0,0,0,.2,3.28c4.37,4.14,8.07,9.06,13.43,12,2.83,1.56,5.24-2.6,2.52-4.32L92.14,281.94c-1.74-1.1-4.48.76-3.68,2.82,1,2.67,4,4.19,6.17,5.85s4.59,3.49,6.79,5.36l3-3.93a31.34,31.34,0,0,1-12.07-9.82,2.53,2.53,0,0,0-3.12-1,2.5,2.5,0,0,0-1.45,2.95c.65,2.27,3,3.59,5,4.48s4.22,1.47,6.35,2.18a20,20,0,0,1,5.44,2.78,17.68,17.68,0,0,1,2.22,1.92c.54.55,1.55,1.36,1.67,2.12l3.08-3.08c-3.5-.51-6.88-3-9.66-5.08-3-2.22-5.86-4.69-8.9-6.89A7,7,0,0,0,87.36,281c-2.54.64-3.18,3.05-2,5.18C87.58,290,92,290.57,96,290.67c3.22.07,3.21-4.93,0-5Z"/><path class="cls-3" d="M107.28,282.16l.18-.62-2.41,1.84h0l-.67-.09.11,0-.6-.25.12.07-.51-.39a2.42,2.42,0,0,1,.32.32,3.6,3.6,0,0,0,.67.51l0,0,.6.25h0l.05,0,.35.05.36,0a1.88,1.88,0,0,0,1-.21,2,2,0,0,0,.81-.52,2.83,2.83,0,0,0,.73-1.77l-.09-.66a2.53,2.53,0,0,0-.64-1.11l-.51-.39A2.53,2.53,0,0,0,106,279h0l.67.09-.1,0,.59.25-.12-.07.51.39c-.12-.09-.22-.22-.33-.32a3.69,3.69,0,0,0-.66-.52l0,0-.59-.25h-.11l-.66-.09h0l-.66.09a1.78,1.78,0,0,0-.85.44,1.21,1.21,0,0,0-.45.45,1.94,1.94,0,0,0-.45.85l-.18.62a1.86,1.86,0,0,0,0,1,2.31,2.31,0,0,0,.94,1.64,1.83,1.83,0,0,0,.85.44l.67.09a2.43,2.43,0,0,0,1.26-.34l.51-.39a2.6,2.6,0,0,0,.64-1.1Z"/><path class="cls-3" d="M93.7,275.54a3.4,3.4,0,0,0,1.4,1.36,5.85,5.85,0,0,1,.82.43l-.51-.39a7.52,7.52,0,0,1,.62.64,4.52,4.52,0,0,0,1.19.89,15.55,15.55,0,0,1,1.72,1.09l-.51-.39c1.3,1,2.4,2.79,4.26,2.63a2.69,2.69,0,0,0,1.77-.74,2.5,2.5,0,0,0,0-3.53,2.44,2.44,0,0,0-1.77-.73h-.2l.67.09-.19-.05.6.25a1.74,1.74,0,0,1-.26-.15l.51.39a8.7,8.7,0,0,1-.87-.85,15.5,15.5,0,0,0-1.24-1,13.79,13.79,0,0,0-1.27-.89c-.37-.22-.76-.4-1.11-.65l.5.39a3.63,3.63,0,0,1-.48-.48,4.66,4.66,0,0,0-.91-.8c-.32-.23-.71-.34-1-.56l.51.39a1,1,0,0,1-.18-.18l.39.51A.6.6,0,0,1,98,273a2.5,2.5,0,1,0-4.32,2.52Z"/><polyline class="cls-4" points="246.61 278.64 243.09 281.07 238.86 283.52 235.33 285.57 230.44 288.08 226.94 289.73"/><path class="cls-3" d="M250.69,282.79a84.35,84.35,0,0,1-10.12,5.47l3,3.93c3.18-3.25,7.32-5.45,10.14-9.06a2.55,2.55,0,0,0,.19-3.28,2.52,2.52,0,0,0-3.22-.65c-4.47,2.31-8,5.95-11.46,9.54l3.53,3.54c2.91-3.43,5.82-6.85,8.87-10.15a2.5,2.5,0,0,0-3.54-3.54,77.67,77.67,0,0,1-11.49,8.6,2.5,2.5,0,1,0,2.52,4.32,88.75,88.75,0,0,0,12.51-9.38l-3.54-3.54c-3.05,3.3-6,6.73-8.86,10.15a2.5,2.5,0,1,0,3.53,3.54c1.63-1.71,3.27-3.41,5-5a25.23,25.23,0,0,1,2.33-1.89,25.52,25.52,0,0,1,3.09-1.89l-3-3.93c-2.82,3.62-6.95,5.82-10.13,9.06a2.5,2.5,0,0,0-.2,3.28,2.55,2.55,0,0,0,3.23.65,85.66,85.66,0,0,0,10.11-5.47,2.5,2.5,0,0,0-2.52-4.32Z"/><path class="cls-3" d="M231,294c2.76-1.69,5.53-3.38,8.36-4.95a79.77,79.77,0,0,0,8-4.52,2.57,2.57,0,0,0,.9-3.42,2.53,2.53,0,0,0-3.42-.9,84.33,84.33,0,0,1-7.95,4.53c-2.84,1.56-5.6,3.25-8.36,4.94A2.5,2.5,0,1,0,231,294Z"/><path class="cls-3" d="M249.93,292.53a75,75,0,0,1,13.45-4.35l-1.92-4.57a100.65,100.65,0,0,0-16.11,8.81,2.51,2.51,0,0,0,1.93,4.57,9,9,0,0,0,3.23-1.38,2.56,2.56,0,0,0,.89-3.42,2.52,2.52,0,0,0-3.42-.89,4.31,4.31,0,0,1-2,.87l1.93,4.57a100.12,100.12,0,0,1,16.1-8.81,2.47,2.47,0,0,0,1-3.12,2.51,2.51,0,0,0-2.95-1.45,79.66,79.66,0,0,0-14.65,4.86,2.52,2.52,0,0,0-.89,3.42,2.56,2.56,0,0,0,3.42.89Z"/><path class="cls-5" d="M55,82.75l4,2.74-.51.66a4.35,4.35,0,0,0-1.86-.58,3.9,3.9,0,0,0-2.16.7,8.72,8.72,0,0,0-2.15,2.26q-1.26,1.8-2.49,3.64L63,101c1.06.71,1.83,1,2.29.87a3.65,3.65,0,0,0,1.86-1.58l.54-.78.46.33q-3.3,4.7-6.28,9.79l-.49-.29.5-.85a3.4,3.4,0,0,0,.62-2.56c-.12-.43-.67-1-1.66-1.57q-6.72-4.23-13.45-8.45-1,1.62-2,3.27a15.31,15.31,0,0,0-1.4,2.87,4.38,4.38,0,0,0,0,2.38,3.51,3.51,0,0,0,1.48,2l-.42.78-4.13-2.62A157.12,157.12,0,0,1,55,82.75Z"/><path class="cls-5" d="M69.15,80.71q4.41-5,9.18-9.37l-4-4.38a4.85,4.85,0,0,0-1.63-1.35,1.68,1.68,0,0,0-1.12.14,5.23,5.23,0,0,0-1.7,1.12l-.76.74-.39-.41q4.57-4.5,9.45-8.54l.36.44-.8.66a5.45,5.45,0,0,0-1.28,1.56,1.55,1.55,0,0,0-.22,1.18,5.15,5.15,0,0,0,1.15,1.7l8.83,10.13a5.67,5.67,0,0,0,1.56,1.41,1.62,1.62,0,0,0,1,0,4.4,4.4,0,0,0,1.56-.85l.7-.58.36.44q-4.2,3.48-8.16,7.37l-.39-.41.65-.64a3.16,3.16,0,0,0,1.17-2.15c0-.46-.41-1.15-1.25-2.07q-2.16-2.33-4.3-4.66-4.72,4.39-9.1,9.3l4.71,4.25a5.41,5.41,0,0,0,1.72,1.2,1.56,1.56,0,0,0,1-.16,4.39,4.39,0,0,0,1.47-1.06l.65-.69.41.39C77.43,88.12,75,91,72.6,94l-.45-.36c.2-.24.39-.49.59-.74a3.4,3.4,0,0,0,1-2.34q-.07-.67-1.5-1.89L62,79.92a4.89,4.89,0,0,0-1.79-1.14,1.73,1.73,0,0,0-1.09.28,5.54,5.54,0,0,0-1.6,1.38l-.68.85-.44-.35q4.11-5.19,8.57-9.91l.41.39-.75.8A5.44,5.44,0,0,0,63.49,74a1.63,1.63,0,0,0-.09,1.21,5,5,0,0,0,1.33,1.57Q66.95,78.71,69.15,80.71Z"/><path class="cls-5" d="M86.88,53.35,91.68,60c1.63-1.17,3.29-2.31,5-3.4A6.27,6.27,0,0,0,99,54.5a3,3,0,0,0-.3-2.73l.65-.39,3.75,6.2-.62.37A6,6,0,0,0,101,56.58a2.27,2.27,0,0,0-1.44-.1,7.12,7.12,0,0,0-2.28,1.1C95.6,58.66,94,59.79,92.33,61l4,5.58a5.19,5.19,0,0,0,1.1,1.28,1.11,1.11,0,0,0,.71.08,4,4,0,0,0,1.27-.67c1.18-.82,2.37-1.62,3.58-2.39A16.18,16.18,0,0,0,105.5,63a5.16,5.16,0,0,0,1.1-1.79,13.08,13.08,0,0,0,.64-3.69l.67-.38c.2,1.88.43,3.76.69,5.62a127.64,127.64,0,0,0-16,11l-.36-.45.71-.56a4.39,4.39,0,0,0,1.13-1.34,1.41,1.41,0,0,0,.2-1.09,6,6,0,0,0-1-1.73L85.07,57.78c-.8-1.05-1.44-1.58-1.92-1.6a4.08,4.08,0,0,0-2.42,1.11l-.81.65-.36-.44A147.07,147.07,0,0,1,98.09,44.74l2.57,3.78-.69.41a5.93,5.93,0,0,0-2-1.45,3.33,3.33,0,0,0-1.85,0,12.41,12.41,0,0,0-2.67,1.4C91.24,50.32,89,51.8,86.88,53.35Z"/><path class="cls-5" d="M119.43,35.73l3,7.61q2.28-.89,4.58-1.69a4.28,4.28,0,0,0,2.15-1.34,3.38,3.38,0,0,0,.28-2.49l.71-.22,2.16,6.7-.68.21A3.31,3.31,0,0,0,130.7,43a2.32,2.32,0,0,0-1.27-.48,5.22,5.22,0,0,0-2,.38c-1.52.53-3,1.09-4.54,1.68q1.18,3,2.39,6.08a5.82,5.82,0,0,0,1,1.85,1.51,1.51,0,0,0,1,.34,4.13,4.13,0,0,0,1.71-.24l.84-.31.2.54q-5,1.78-9.83,4l-.24-.51.8-.36a3,3,0,0,0,1.76-1.59A4,4,0,0,0,122,52q-2.64-6.19-5.27-12.37a5.16,5.16,0,0,0-1.06-1.82,1.7,1.7,0,0,0-1.06-.27,4.88,4.88,0,0,0-1.92.44l-.92.41-.24-.51a151.68,151.68,0,0,1,19.94-7.39L133,34.76l-.69.2a5.57,5.57,0,0,0-1.81-1.69,4.21,4.21,0,0,0-2-.41,11.33,11.33,0,0,0-3.2.73Q122.35,34.6,119.43,35.73Z"/><path class="cls-5" d="M148.63,26a13.9,13.9,0,0,1,9.85,1.74A9,9,0,0,1,163.07,35a10.33,10.33,0,0,1-2.93,8.17,14.79,14.79,0,0,1-17.1,3,10.38,10.38,0,0,1-5.48-6.76,9,9,0,0,1,2.29-8.91A14.82,14.82,0,0,1,148.63,26Zm-.2,1.17a8.15,8.15,0,0,0-5.54,3.18c-1.47,2.07-1.77,4.73-1,8s2.28,5.63,4.37,7a7.34,7.34,0,0,0,5.58,1,8.22,8.22,0,0,0,5.37-3.12c1.31-1.7,1.83-4.17,1.46-7.43-.4-3.53-1.6-6.07-3.7-7.57A8.52,8.52,0,0,0,148.43,27.18Z"/><path class="cls-5" d="M184.25,25.15l0-.57q5,.32,10,1l-.07.56L193.15,26a3.15,3.15,0,0,0-2.65.74,3.62,3.62,0,0,0-.66,2.15L189,37.24A12.62,12.62,0,0,1,187.73,42a6.74,6.74,0,0,1-3.17,2.7,12.74,12.74,0,0,1-5.88.93,13.89,13.89,0,0,1-6.07-1.22,7.09,7.09,0,0,1-3.08-3.1,14.9,14.9,0,0,1-.81-5.09c-.12-2.7-.23-5.41-.35-8.12a3.19,3.19,0,0,0-.82-2.47,3.53,3.53,0,0,0-2.35-.48l-1.06.07,0-.56q6.12-.42,12.25-.36v.57h-1.08a3.2,3.2,0,0,0-2.49.83,3.51,3.51,0,0,0-.48,2.3q.08,4.53.14,9.06a17,17,0,0,0,.32,2.77,5.45,5.45,0,0,0,1,2.43,5.21,5.21,0,0,0,2,1.44,8.39,8.39,0,0,0,3.18.63,11.05,11.05,0,0,0,4.38-.68,5.53,5.53,0,0,0,2.81-2.08,11.26,11.26,0,0,0,1.13-4.62q.39-4.18.76-8.38c.12-1.29,0-2.11-.36-2.47a3.55,3.55,0,0,0-2.35-.86Z"/><path class="cls-5" d="M194.18,25.52q3.81.48,7.61,1.16a135.43,135.43,0,0,1,12.39,18.94l3.48-11.48c.37-1.23.42-2,.14-2.46a3.75,3.75,0,0,0-2.17-1.29l-.95-.26.15-.54q4.78,1.29,9.49,2.89l-.19.54-.95-.33a3.33,3.33,0,0,0-2.68,0,3.56,3.56,0,0,0-1.11,2q-2.65,8.37-5.3,16.72l-.62-.19a132.18,132.18,0,0,0-12.72-20.25q-1.14,6.31-2.27,12.61a3.72,3.72,0,0,0,.06,2.44,3.09,3.09,0,0,0,2,1l.86.17-.12.56c-2.79-.57-5.59-1-8.4-1.43l.07-.56.85.12a2.82,2.82,0,0,0,2.33-.45,4,4,0,0,0,.77-2.15q1.2-7.12,2.39-14.26a10.27,10.27,0,0,0-1.61-1.66,7.15,7.15,0,0,0-1.75-.89,7.86,7.86,0,0,0-1.8-.38Z"/><path class="cls-5" d="M218.61,52.52l.19-.53.88.31a2.74,2.74,0,0,0,2.39,0,4.22,4.22,0,0,0,1.2-2q2.43-6.27,4.85-12.54c.47-1.21.58-2,.34-2.48a3.65,3.65,0,0,0-2.05-1.48l-1-.36.19-.53q5.49,1.92,10.84,4.28a28.09,28.09,0,0,1,8.35,5.18,10.25,10.25,0,0,1,3,5.65A8.6,8.6,0,0,1,246.59,54a9.75,9.75,0,0,1-6.51,4.65c-3.19.72-6.84,0-11.22-2Q223.81,54.35,218.61,52.52Zm7.16,1.12a26.93,26.93,0,0,0,3.43,2,11.38,11.38,0,0,0,7.56.86,8.79,8.79,0,0,0,5.81-4.6A7.92,7.92,0,0,0,243,44.4a11.92,11.92,0,0,0-6.31-5.79,19.84,19.84,0,0,0-4.12-1.29Z"/><path class="cls-5" d="M260.33,51.85l-4.68,6.77q2.49,1.71,4.9,3.54a6.58,6.58,0,0,0,2.83,1.52,3.08,3.08,0,0,0,2.48-1.2l.6.49c-1.52,1.87-3,3.75-4.57,5.62l-.57-.46a6.26,6.26,0,0,0,.78-1.87,2.34,2.34,0,0,0-.4-1.4,7.37,7.37,0,0,0-1.83-1.8q-2.4-1.81-4.85-3.52l-3.91,5.65a5.34,5.34,0,0,0-.83,1.47,1.06,1.06,0,0,0,.16.69,4.09,4.09,0,0,0,1.07,1q1.76,1.26,3.48,2.58a15.86,15.86,0,0,0,2.63,1.76,5.17,5.17,0,0,0,2.09.46,13.14,13.14,0,0,0,3.73-.6l.6.52q-2.58,1.21-5.11,2.5a126.21,126.21,0,0,0-15.79-11.39l.3-.49.76.47a4.36,4.36,0,0,0,1.62.6,1.4,1.4,0,0,0,1.08-.18A5.7,5.7,0,0,0,248.18,63q3.7-5.67,7.39-11.34c.72-1.11,1-1.89.87-2.35a4,4,0,0,0-1.84-1.88l-.87-.54.3-.49a147.71,147.71,0,0,1,18.3,13.21l-2.69,3.69-.63-.53a5.65,5.65,0,0,0,.67-2.37,3.41,3.41,0,0,0-.66-1.76,12.45,12.45,0,0,0-2.25-2.07Q263.61,54.11,260.33,51.85Z"/><path class="cls-5" d="M279.31,97.29q-2.13-2.88-4.4-5.61.87-6.59,1.1-13.4l-1.21-1.21-.4-.42-.43-.47q-2.13,2.14-4.27,4.28c-.92.93-1.37,1.64-1.34,2.12a3.3,3.3,0,0,0,1.05,2l.71.75-.42.39q-3.82-4.08-7.93-7.76l.38-.43.72.65a2.91,2.91,0,0,0,2.31,1c.41,0,1-.5,1.84-1.36l9.23-9.79c.89-1,1.3-1.68,1.22-2.19a3.93,3.93,0,0,0-1.4-2.23l-.83-.75.38-.42q4,3.62,7.85,7.59a29.92,29.92,0,0,1,4.46,5.58,8.58,8.58,0,0,1,1.18,4.12,3.83,3.83,0,0,1-1.38,3.2,4.23,4.23,0,0,1-3.67.77,12.28,12.28,0,0,1-5-2.72q-.26,4.17-.75,8.27a14.09,14.09,0,0,0-.05,4.3,11.19,11.19,0,0,0,1.5,3.38Zm-4.66-21.8.48.5.33.34a12.69,12.69,0,0,0,5.12,3.59,3.84,3.84,0,0,0,3.85-.6,3.67,3.67,0,0,0,1.21-3.41,7.68,7.68,0,0,0-2.25-4.27,24.27,24.27,0,0,0-2.62-2.28Z"/><path class="cls-5" d="M308,102.78l-6.31,3.45c-.13-.25-.27-.49-.41-.74a6.77,6.77,0,0,0,2.15-2.92,7,7,0,0,0,.12-3.66A11.37,11.37,0,0,0,302,95a7.1,7.1,0,0,0-3-2.82,2.65,2.65,0,0,0-2.7,0,2.26,2.26,0,0,0-.89,1.78c-.12,1.2.26,3.59,1,7.21a40.38,40.38,0,0,1,.83,6.2,6.84,6.84,0,0,1-.59,3,4,4,0,0,1-1.72,1.84,5,5,0,0,1-4.78-.3,11.83,11.83,0,0,1-4.66-4.6,17.71,17.71,0,0,1-1.07-2c-.19-.38-.49-1.21-.95-2.48a12.91,12.91,0,0,0-1-2.33,1.19,1.19,0,0,0-.64-.52,1.53,1.53,0,0,0-1,.2l-.43-.6,5.79-4.18.44.63a8.85,8.85,0,0,0-1.9,3.13,6.87,6.87,0,0,0,0,3.32,11.81,11.81,0,0,0,1.56,3.81,7.59,7.59,0,0,0,3,3,2.91,2.91,0,0,0,2.83.13,2.51,2.51,0,0,0,1.05-1.27,5.34,5.34,0,0,0,.34-2.33,42,42,0,0,0-.73-5c-.5-2.67-.85-4.6-1-5.82a8.25,8.25,0,0,1,.21-3.14,3.77,3.77,0,0,1,1.43-2.06c1.21-.88,2.74-1,4.6-.16a11.44,11.44,0,0,1,5,4.64,17.76,17.76,0,0,1,2.12,5.06,8.33,8.33,0,0,0,.6,1.82,1.93,1.93,0,0,0,.7.76,1.74,1.74,0,0,0,1.15.09C307.7,102.26,307.84,102.52,308,102.78Z"/><path class="cls-5" d="M162.7,327.52c-.53,1.64-1,3.26-1.58,4.89A108.27,108.27,0,0,1,145.73,329l0-.73a39,39,0,0,0,9-8,10.44,10.44,0,0,0,2.4-6.81,7.45,7.45,0,0,0-1.75-4.49,6.86,6.86,0,0,0-3.72-2.46,4.72,4.72,0,0,0-3.37.28,4.23,4.23,0,0,0-2.06,2.76l-.7-.21c.19-2.35.9-4,2.15-4.92a5.59,5.59,0,0,1,4.84-.7,10.36,10.36,0,0,1,5.43,3.2,8.17,8.17,0,0,1,1.69,9.2,18.76,18.76,0,0,1-4.3,5.92,68.21,68.21,0,0,1-5.64,5.11c2.26.58,4.53,1.1,6.81,1.54a16.14,16.14,0,0,0,2.94.37,3,3,0,0,0,1.49-.4,3,3,0,0,0,1.12-1.2Z"/><path class="cls-5" d="M165.38,319.85a18.91,18.91,0,0,1,1-7.71,9.09,9.09,0,0,1,3.39-4.6,5.86,5.86,0,0,1,3.6-1.08,7.86,7.86,0,0,1,5.7,3.17c2.19,2.53,3.4,5.94,3.64,10.33a20.32,20.32,0,0,1-.92,7.88,9.87,9.87,0,0,1-3.18,4.77,6.45,6.45,0,0,1-3.95,1.43c-2.55-.07-4.76-1.7-6.61-4.84A20.32,20.32,0,0,1,165.38,319.85Zm3.88.84a26.56,26.56,0,0,0,1.84,9.06c.86,2,2,3,3.51,3.05a3.19,3.19,0,0,0,2.17-.91,5.66,5.66,0,0,0,1.57-3.18,38.22,38.22,0,0,0,.39-9.49,26.18,26.18,0,0,0-1.36-7.56,7.45,7.45,0,0,0-2-3.21,3.38,3.38,0,0,0-2-.7,2.82,2.82,0,0,0-2.32,1.09,8.92,8.92,0,0,0-1.66,5A46.37,46.37,0,0,0,169.26,320.69Z"/><path class="cls-5" d="M203.08,325.5,201.49,331a113,113,0,0,1-15.77,2.32l0-.73a65.46,65.46,0,0,0,9.26-11.37c1.75-2.94,2.57-5.53,2.45-7.71a5.1,5.1,0,0,0-1.78-3.84,4.83,4.83,0,0,0-3.82-1.06,6.64,6.64,0,0,0-3.49,1.55,7,7,0,0,0-2.14,3.54l-.73.06a9.29,9.29,0,0,1,2.24-5.74,8,8,0,0,1,5-2.52,7.44,7.44,0,0,1,5.55,1.17,5.53,5.53,0,0,1,2.43,4.4,10.1,10.1,0,0,1-.73,4.18,29.9,29.9,0,0,1-4.36,7.52c-3.08,4.05-5,6.39-5.79,7.21q3.51-.39,7-1a17.21,17.21,0,0,0,3-.72,4.61,4.61,0,0,0,1.5-1,5.15,5.15,0,0,0,1.13-1.61Z"/><path class="cls-5" d="M205.89,308.43a14.64,14.64,0,0,1,2.63-4.85,9.09,9.09,0,0,1,4.19-2.75c2.09-.69,3.72-.59,4.9.34a3.57,3.57,0,0,1,1.43,2.76c.1,1.88-1,4.32-3.24,7.2a5.43,5.43,0,0,1,3.75,1.32,5.13,5.13,0,0,1,1.43,3.6,11.65,11.65,0,0,1-1.81,6.7,13.85,13.85,0,0,1-7.94,6.1c-1.76.55-3,.67-3.65.41s-1-.64-1-1.14A1.61,1.61,0,0,1,207,327a2.05,2.05,0,0,1,1.07-.73,3.76,3.76,0,0,1,1-.13,10,10,0,0,1,1.53.26,7.51,7.51,0,0,0,1.64.21,5.21,5.21,0,0,0,1.54-.29,6.54,6.54,0,0,0,3.32-2.73,6.73,6.73,0,0,0,1.24-4.13,5.42,5.42,0,0,0-.82-2.69,3.34,3.34,0,0,0-1.18-1.23A6.12,6.12,0,0,0,214,315a7.7,7.7,0,0,0-3,.33l-.61.2,0-.58a10.37,10.37,0,0,0,3-2.08,8.8,8.8,0,0,0,2.1-2.93,7.05,7.05,0,0,0,.54-3,3.17,3.17,0,0,0-1.41-2.76,3.71,3.71,0,0,0-3.16-.2,8.4,8.4,0,0,0-4.85,4.66Z"/><text class="cls-6" transform="matrix(0.98, 0.21, -0.21, 0.98, 15.48, 161.07)">{</text><text class="cls-6" transform="translate(309.88 161.07) rotate(-10.12)">}</text><circle class="cls-7" cx="176.04" cy="176.04" r="172.54"/></g></g></svg>